<?xml version="1.0" encoding="utf-8"?>
<!-- Generator: Adobe Illustrator 30.1.0, SVG Export Plug-In . SVG Version: 9.03 Build 0)  -->
<svg version="1.0" id="Calque_1" xmlns="http://www.w3.org/2000/svg" xmlns:xlink="http://www.w3.org/1999/xlink" x="0px" y="0px"
	 viewBox="0 0 500 500" style="enable-background:new 0 0 500 500;" xml:space="preserve">
<style type="text/css">
	.st0{clip-path:url(#SVGID_00000127744286738995196230000002426146404623047578_);}
	.st1{fill:#0C4B7A;}
	.st2{clip-path:url(#SVGID_00000141426123695139323250000003414111313683042447_);}
	.st3{fill:#1CB3E4;}
	.st4{clip-path:url(#SVGID_00000060015291008121246910000011299410181131462320_);}
	.st5{fill:#0A4662;}
	.st6{clip-path:url(#SVGID_00000147179558246725106610000006179679957482331824_);}
	.st7{clip-path:url(#SVGID_00000102540825964590430850000015720289417601425061_);}
	.st8{clip-path:url(#SVGID_00000081623865014033656200000004828986671193820303_);}
	.st9{filter:url(#Adobe_OpacityMaskFilter);}
	.st10{fill-opacity:0.059;}
	.st11{mask:url(#_x32_dc545f29c_00000036251135620721269410000015562289076288634025_);}
	.st12{clip-path:url(#SVGID_00000149374655661333449850000010282915859542056839_);}
	.st13{clip-path:url(#SVGID_00000172431817051084992160000016646388596178328729_);}
	.st14{clip-path:url(#SVGID_00000042700108769374729420000014166910414992809635_);}
	.st15{clip-path:url(#SVGID_00000162334437754976074650000002381515799092120471_);}
	.st16{fill:#FFFFFF;}
	.st17{clip-path:url(#SVGID_00000109721204787020102170000010432266356904503710_);}
	.st18{fill:none;stroke:#85C7ED;stroke-width:3.0167;stroke-miterlimit:1.5421;}
	.st19{clip-path:url(#SVGID_00000173845799799009585560000000475212831004997028_);}
	.st20{fill:none;stroke:#FFFFFF;stroke-width:3.0942;stroke-miterlimit:1.5421;}
	.st21{clip-path:url(#SVGID_00000027606128820861077340000004545206656705180299_);}
</style>
<g>
	<defs>
		<rect id="SVGID_1_" x="60.95" y="137.69" width="184.38" height="224.98"/>
	</defs>
	<clipPath id="SVGID_00000120539669424172625560000018151603637360652185_">
		<use xlink:href="#SVGID_1_"  style="overflow:visible;"/>
	</clipPath>
	<g style="clip-path:url(#SVGID_00000120539669424172625560000018151603637360652185_);">
		<path class="st1" d="M84.84,250.15c0-56.99,46.08-103.18,102.91-103.18c20.97,0,40.47,6.29,56.74,17.09
			c-19.41-16.28-44.42-26.08-71.7-26.08c-61.78,0-111.84,50.21-111.84,112.17c0,61.95,50.07,112.17,111.84,112.17
			c27.28,0,52.29-9.8,71.7-26.08c-16.28,10.8-35.78,17.09-56.74,17.09C130.92,353.35,84.84,307.14,84.84,250.15z"/>
	</g>
</g>
<g>
	<defs>
		<rect id="SVGID_00000091721648029523191660000008555984414837486012_" x="126.67" y="306.13" width="139.29" height="44"/>
	</defs>
	<clipPath id="SVGID_00000134940502720165746520000012213129708938702219_">
		<use xlink:href="#SVGID_00000091721648029523191660000008555984414837486012_"  style="overflow:visible;"/>
	</clipPath>
	<g style="clip-path:url(#SVGID_00000134940502720165746520000012213129708938702219_);">
		<path class="st3" d="M244.45,306.21c-15.57,21.97-41.17,36.3-70.09,36.3c-17.52,0-33.83-5.26-47.42-14.29
			c16.21,13.61,37.12,21.78,59.9,21.78c33.32,0,62.57-17.48,79.1-43.81h-21.48V306.21z"/>
	</g>
</g>
<g>
	<defs>
		<rect id="SVGID_00000168798547821157361770000017185813243092916359_" x="126.67" y="150.89" width="139.29" height="45.33"/>
	</defs>
	<clipPath id="SVGID_00000108991288102601485350000006098429193012736394_">
		<use xlink:href="#SVGID_00000168798547821157361770000017185813243092916359_"  style="overflow:visible;"/>
	</clipPath>
	<g style="clip-path:url(#SVGID_00000108991288102601485350000006098429193012736394_);">
		<path class="st3" d="M244.45,195.13h21.51c-16.55-26.34-45.8-43.82-79.12-43.82c-22.8,0-43.69,8.2-59.9,21.78
			c13.59-9.03,29.89-14.29,47.42-14.29C203.28,158.82,228.88,173.15,244.45,195.13z"/>
	</g>
</g>
<path class="st5" d="M338.99,270.68c-5.78-0.06-11.63-3.42-15.45-8.72c-0.23-0.33-0.74-0.32-0.97,0
	c-3.88,5.29-10.03,8.61-15.82,8.64c-0.31,0-0.56,0.22-0.59,0.51c-0.56,6.25,0.37,12.68,3.17,18.09c2.83,5.47,7.86,9.87,13.02,12.38
	c0.17,0.08,0.37,0.09,0.54,0c5.17-2.48,10.23-6.85,13.09-12.31c2.83-5.4,4.11-11.83,3.6-18.08
	C339.55,270.9,339.29,270.68,338.99,270.68z"/>
<g>
	<defs>
		<rect id="SVGID_00000021119859750225668720000014993363602991744919_" x="246.81" y="328.76" width="17.56" height="40.69"/>
	</defs>
	<clipPath id="SVGID_00000036970449231826548670000007592015512046526650_">
		<use xlink:href="#SVGID_00000021119859750225668720000014993363602991744919_"  style="overflow:visible;"/>
	</clipPath>
	<g style="clip-path:url(#SVGID_00000036970449231826548670000007592015512046526650_);">
		<g>
			<defs>
				
					<rect id="SVGID_00000039821032099116986860000016692808096815450255_" x="243.93" y="332.29" transform="matrix(2.677043e-03 -1 1 2.677043e-03 -85.9774 612.1592)" width="39.96" height="33.79"/>
			</defs>
			<clipPath id="SVGID_00000170959473557932295950000001594982549304932517_">
				<use xlink:href="#SVGID_00000039821032099116986860000016692808096815450255_"  style="overflow:visible;"/>
			</clipPath>
			<g style="clip-path:url(#SVGID_00000170959473557932295950000001594982549304932517_);">
				<g>
					<defs>
						<path id="SVGID_00000059305028613191553230000015858517082251236760_" d="M280.09,338.23c-5.78-0.08-11.62-3.45-15.43-8.77
							c-0.23-0.32-0.74-0.32-0.97,0c-3.89,5.28-10.05,8.59-15.85,8.6c-0.31,0-0.56,0.22-0.59,0.51c-0.57,6.25,0.34,12.68,3.12,18.1
							c2.81,5.47,7.84,9.89,12.99,12.41c0.17,0.08,0.37,0.08,0.54,0c5.18-2.46,10.25-6.83,13.12-12.27
							c2.84-5.39,4.13-11.81,3.64-18.07C280.65,338.46,280.4,338.23,280.09,338.23z"/>
					</defs>
					<clipPath id="SVGID_00000172404276564792612620000017580331622820420738_">
						<use xlink:href="#SVGID_00000059305028613191553230000015858517082251236760_"  style="overflow:visible;"/>
					</clipPath>
					<g style="clip-path:url(#SVGID_00000172404276564792612620000017580331622820420738_);">
						<defs>
							<filter id="Adobe_OpacityMaskFilter" filterUnits="userSpaceOnUse" x="246.04" y="323.95" width="34.82" height="56.52">
								<feColorMatrix  type="matrix" values="1 0 0 0 0  0 1 0 0 0  0 0 1 0 0  0 0 0 1 0"/>
							</filter>
						</defs>
						
							<mask maskUnits="userSpaceOnUse" x="246.04" y="323.95" width="34.82" height="56.52" id="_x32_dc545f29c_00000036251135620721269410000015562289076288634025_">
							<g class="st9">
								<rect x="50.24" y="208.26" class="st10" width="282.16" height="281.69"/>
							</g>
						</mask>
						<g class="st11">
							<g transform="matrix(1, 0, 0, 1, 276, 155)">
								<g>
									<defs>
										
											<rect id="SVGID_00000093161713608956205850000005066427936053461388_" x="-29.19" y="173.76" width="17.56" height="40.69"/>
									</defs>
									<clipPath id="SVGID_00000153680697972142545580000015893946554187582862_">
										<use xlink:href="#SVGID_00000093161713608956205850000005066427936053461388_"  style="overflow:visible;"/>
									</clipPath>
									<g style="clip-path:url(#SVGID_00000153680697972142545580000015893946554187582862_);">
										<g>
											<defs>
												
													<rect id="SVGID_00000096023361046125005490000006314105616554364597_" x="-29.19" y="174.08" width="17.31" height="40.11"/>
											</defs>
											<clipPath id="SVGID_00000050630483279840535250000018099486913698121088_">
												<use xlink:href="#SVGID_00000096023361046125005490000006314105616554364597_"  style="overflow:visible;"/>
											</clipPath>
											<g style="clip-path:url(#SVGID_00000050630483279840535250000018099486913698121088_);">
												<g>
													<defs>
														
															<rect id="SVGID_00000053519013103238946730000011532777203456423331_" x="-32.07" y="177.29" transform="matrix(2.677891e-03 -1 1 2.677891e-03 -206.2391 181.575)" width="39.96" height="33.79"/>
													</defs>
													<clipPath id="SVGID_00000023977802668570990640000011152670929371375524_">
														<use xlink:href="#SVGID_00000053519013103238946730000011532777203456423331_"  style="overflow:visible;"/>
													</clipPath>
													<g style="clip-path:url(#SVGID_00000023977802668570990640000011152670929371375524_);">
														<g>
															<defs>
																<path id="SVGID_00000176748582277290227540000017847835116414220982_" d="M4.09,183.23
																	c-5.78-0.08-11.62-3.45-15.43-8.77c-0.23-0.32-0.74-0.32-0.97,0c-3.89,5.28-10.05,8.59-15.85,8.6
																	c-0.31,0-0.56,0.22-0.59,0.51c-0.57,6.25,0.34,12.68,3.12,18.1c2.81,5.47,7.84,9.89,12.99,12.41
																	c0.17,0.08,0.37,0.08,0.54,0c5.18-2.46,10.25-6.83,13.12-12.27c2.84-5.39,4.13-11.81,3.64-18.07
																	C4.65,183.46,4.4,183.23,4.09,183.23z"/>
															</defs>
															<clipPath id="SVGID_00000159442140927886035940000008181803934650943130_">
																<use xlink:href="#SVGID_00000176748582277290227540000017847835116414220982_"  style="overflow:visible;"/>
															</clipPath>
															<g style="clip-path:url(#SVGID_00000159442140927886035940000008181803934650943130_);">
																<path class="st16" d="M-29.81,168.95l17.76,0.05l-0.15,56.47l-17.76-0.05L-29.81,168.95z"/>
															</g>
														</g>
													</g>
												</g>
											</g>
										</g>
									</g>
								</g>
							</g>
						</g>
					</g>
				</g>
			</g>
		</g>
	</g>
</g>
<g>
	<defs>
		<rect id="SVGID_00000075132099032415343680000002142193881287854252_" x="304.88" y="260.96" width="35.74" height="41.32"/>
	</defs>
	<clipPath id="SVGID_00000077294546967670357350000001590581744153631626_">
		<use xlink:href="#SVGID_00000075132099032415343680000002142193881287854252_"  style="overflow:visible;"/>
	</clipPath>
	<g style="clip-path:url(#SVGID_00000077294546967670357350000001590581744153631626_);">
		<path class="st18" d="M338.99,270.79c-5.78-0.06-11.63-3.42-15.45-8.72c-0.23-0.33-0.74-0.32-0.97,0
			c-3.88,5.29-10.03,8.61-15.82,8.64c-0.31,0-0.56,0.22-0.59,0.51c-0.56,6.25,0.37,12.68,3.17,18.09
			c2.83,5.47,7.86,9.87,13.02,12.38c0.17,0.08,0.37,0.09,0.54,0c5.17-2.48,10.23-6.85,13.09-12.31c2.83-5.4,4.11-11.83,3.6-18.08
			C339.55,271.01,339.29,270.79,338.99,270.79z"/>
	</g>
</g>
<path class="st16" d="M317.92,288.24l-0.3-7.78c-0.04-0.93,0.69-1.7,1.61-1.74l8.24-0.32c0.93-0.03,1.71,0.69,1.74,1.61l0.3,7.78
	c0.04,0.93-0.69,1.7-1.61,1.74l-8.24,0.32C318.73,289.89,317.95,289.17,317.92,288.24z"/>
<path class="st1" d="M325.02,283.23c0,0.2-0.04,0.39-0.11,0.57c-0.08,0.18-0.18,0.34-0.32,0.48s-0.3,0.25-0.48,0.32
	c-0.18,0.08-0.37,0.11-0.57,0.11s-0.39-0.04-0.57-0.11c-0.18-0.08-0.34-0.18-0.48-0.32s-0.25-0.3-0.32-0.48
	c-0.07-0.18-0.11-0.37-0.11-0.57c0-0.2,0.04-0.39,0.11-0.57c0.08-0.18,0.18-0.34,0.32-0.48c0.14-0.14,0.3-0.25,0.48-0.32
	c0.18-0.08,0.37-0.11,0.57-0.11s0.39,0.04,0.57,0.11c0.18,0.08,0.34,0.18,0.48,0.32c0.14,0.14,0.25,0.3,0.32,0.48
	C324.98,282.85,325.02,283.04,325.02,283.23z"/>
<path class="st1" d="M323.12,282.34l-1.52,4.77l3.41-0.13L323.12,282.34z"/>
<g>
	<defs>
		<rect id="SVGID_00000078003765267433461360000002705917006653398671_" x="304.88" y="260.85" width="35.74" height="39.86"/>
	</defs>
	<clipPath id="SVGID_00000074426868288286063890000008032571627240438958_">
		<use xlink:href="#SVGID_00000078003765267433461360000002705917006653398671_"  style="overflow:visible;"/>
	</clipPath>
	<g style="clip-path:url(#SVGID_00000074426868288286063890000008032571627240438958_);">
		<path class="st20" d="M319.25,275.39c1.26-2.32,4.04-3.25,6.23-2.07c2.19,1.18,2.94,4.01,1.69,6.34"/>
	</g>
</g>
<g>
	<defs>
		<rect id="SVGID_00000151540204583049418290000000336368404247172489_" x="118.17" y="181.22" width="100" height="134"/>
	</defs>
	<clipPath id="SVGID_00000060735805576094778790000014559736680530474140_">
		<use xlink:href="#SVGID_00000151540204583049418290000000336368404247172489_"  style="overflow:visible;"/>
	</clipPath>
	<g style="clip-path:url(#SVGID_00000060735805576094778790000014559736680530474140_);">
		<path class="st1" d="M157.39,303.65c-13.83,0-22.18-15.3-14.71-26.93l48.68-75.8c1.32-2.05,2.02-4.44,2.02-6.88
			c0-7.03-5.7-12.73-12.73-12.73h-45.79c-9.22,0-16.7,7.47-16.7,16.69V298.2c0,9.22,7.47,16.7,16.7,16.7h66.22
			c9.21,0,16.69-7.47,16.69-16.69l0.02-29.74c0.01-11.05-14.4-15.29-20.37-5.99l-19.1,29.73
			C173.74,299.34,165.86,303.65,157.39,303.65z"/>
	</g>
</g>
<g>
	<g transform="translate(168.869626, 226.999979)">
		<g>
			<path class="st1" d="M74.47,43.26c-0.39-0.68-1.85-1.02-4.38-1.02c-3.31,0-5.81,1.12-7.52,3.38c-1.71,2.24-2.56,5.47-2.56,9.71
				c0,8.78,3.29,13.17,9.88,13.17c0.11,0,0.58,0,1.42,0c0.83,0,1.62-0.11,2.38-0.33c0.75-0.23,1.19-0.48,1.33-0.73
				c0.14-0.25,0.21-0.65,0.21-1.19v-4.25l5.44,0.35v9.23c-2.78,1.46-6.3,2.19-10.56,2.19c-5.43,0-9.58-1.53-12.46-4.58
				c-2.86-3.05-4.29-7.6-4.29-13.65c0-3.34,0.48-6.26,1.44-8.75c0.97-2.48,2.27-4.42,3.9-5.81c3.21-2.67,7.01-4,11.42-4
				c3.55,0,6.9,0.73,10.04,2.19v9.06l-5.46,0.38v-4.17C74.67,43.9,74.6,43.51,74.47,43.26z"/>
		</g>
	</g>
</g>
<g>
	<g transform="translate(192.947238, 226.999979)">
		<g>
			<path class="st1" d="M88.29,73.09H62.95v-4.31l1.75-0.17c1.04-0.11,1.56-0.61,1.56-1.5V42.32l-3.04-0.17v-4.52h12.85v4.31
				l-1.77,0.17c-1.03,0.1-1.54,0.67-1.54,1.71v23.77h8.85c0.5,0,0.82-0.13,0.98-0.4c0.17-0.26,0.25-0.7,0.25-1.31v-3.73l5.44,0.38
				V73.09z"/>
		</g>
	</g>
</g>
<g>
	<g transform="translate(214.425108, 226.999979)">
		<g>
			<path class="st1" d="M75.36,66.1V41.58l-3.04-0.17v-4.52h12.9v4.31l-1.75,0.17c-1.03,0.1-1.54,0.67-1.54,1.71v24.58l3.02,0.15
				v4.54h-12.9v-4.31l1.75-0.17c0.54-0.07,0.94-0.21,1.19-0.44C75.23,67.2,75.36,66.75,75.36,66.1z"/>
		</g>
	</g>
</g>
<g>
	<g transform="translate(258.717277, 226.999979)">
		<g>
			<path class="st1" d="M90.45,67.71V43.19l-3.04-0.17V38.5h12.79v4.31l-1.75,0.17c-1.04,0.1-1.56,0.67-1.56,1.71v11.73l10.9-13.23
				l-3-0.17V38.5h12.48v4.31l-1.75,0.17c-0.68,0.07-1.4,0.56-2.15,1.48l-7.56,9.29l9.44,15.52l2.83,0.15v4.54h-13.67v-4.31
				l1.67-0.17c0.71-0.07,1.06-0.35,1.06-0.85c0-0.21-0.09-0.49-0.27-0.85l-5.27-9.12l-4.71,5.67v4.96l3.04,0.15v4.54H87.14v-4.31
				l1.75-0.17c0.54-0.07,0.94-0.21,1.19-0.44C90.33,68.81,90.45,68.37,90.45,67.71z"/>
		</g>
	</g>
</g>
<g>
	<g transform="translate(133.492585, 194.748738)">
		<g>
			<path class="st1" d="M64.08,51.39c4.26,0,6.4-1.71,6.4-5.12c0-1.78-0.95-3.09-2.83-3.96c-0.99-0.48-2.27-0.94-3.85-1.38
				c-1.58-0.43-2.91-0.86-3.96-1.31c-1.04-0.44-2.1-1.05-3.17-1.83c-2.1-1.57-3.15-3.98-3.15-7.23s1.12-5.8,3.38-7.67
				c2.26-1.88,5.21-2.81,8.85-2.81c3.65,0,7.04,0.73,10.17,2.19v8l-5.44,0.38v-3.1c0-0.53-0.07-0.92-0.21-1.17
				c-0.39-0.68-1.65-1.02-3.77-1.02c-2.11,0-3.68,0.38-4.69,1.12c-1.02,0.75-1.52,1.91-1.52,3.46c0,1.14,0.43,2.14,1.29,3
				c0.57,0.57,1.41,1.04,2.52,1.42c1.12,0.38,2.32,0.76,3.58,1.15c1.26,0.39,2.38,0.81,3.35,1.27c0.97,0.46,1.99,1.1,3.06,1.92
				c2.17,1.61,3.25,4.09,3.25,7.44c0,3.33-1.2,5.96-3.6,7.88c-2.39,1.92-5.55,2.88-9.48,2.88c-3.93,0-7.46-0.73-10.58-2.19v-8.42
				l5.44-0.38v3.25c0,0.53,0.07,0.92,0.21,1.17c0.14,0.25,0.57,0.49,1.29,0.73C61.35,51.27,62.5,51.39,64.08,51.39z"/>
		</g>
	</g>
</g>
<g>
	<g transform="translate(153.970538, 194.748738)">
		<g>
			<path class="st1" d="M63.89,50.22l8.58-24.85l-3.35-0.31v-4.31h12.21L92.2,51.51h0.06l3.04,0.15v4.54H81.54v-4.31l2.04-0.17
				c0.59-0.07,1-0.21,1.21-0.42c0.22-0.22,0.24-0.61,0.06-1.19l-1.12-3.31H71.24l-1.58,4.71l3.19,0.15v4.54H60.54v-4.31l1.75-0.17
				C63.04,51.65,63.57,51.15,63.89,50.22z M77.49,26.7l-4.96,15.21h9.92L77.66,26.7H77.49z"/>
		</g>
	</g>
</g>
<g>
	<g transform="translate(180.447908, 194.748738)">
		<g>
			<path class="st1" d="M72.49,56.2v-4.31l1.77-0.17c1.03-0.11,1.54-0.61,1.54-1.5V25.43l-3.04-0.17v-4.52h25.75v8.85l-5.44,0.35
				v-2.12c0-0.59-0.09-1.02-0.27-1.27c-0.17-0.25-0.59-0.38-1.27-0.38h-9.23v9.44h13.12v5.44H82.31v10.46l4.75,0.15v4.54H72.49z"/>
		</g>
	</g>
</g>
<g>
	<g transform="translate(202.165749, 194.748738)">
		<g>
			<path class="st1" d="M105.8,56.2H80.46v-4.31l1.77-0.17c1.03-0.11,1.54-0.61,1.54-1.5V25.43l-3.04-0.17v-4.52h24.42v8.85
				l-5.44,0.35v-2.12c0-0.59-0.09-1.02-0.27-1.27c-0.17-0.25-0.59-0.38-1.27-0.38h-7.9v9.1h12.31v5.46H90.28v9.96h8.58
				c0.64,0,1.05-0.13,1.23-0.4c0.18-0.26,0.27-0.7,0.27-1.31v-2.67l5.44,0.38V56.2z"/>
		</g>
	</g>
</g>
</svg>
